<svg xmlns="http://www.w3.org/2000/svg" viewBox="2571 3423.084 97.744 17.268">
  <defs>
    <style>
      .cls-1 {
        fill: #919191;
      }

      .cls-2 {
        fill: none;
        stroke: #95989a;
      }
    </style>
  </defs>
  <g id="Group_263" data-name="Group 263" transform="translate(1597 2608)">
    <path id="Path_549" data-name="Path 549" class="cls-1" d="M8.842,13.694l4.66,2.473a.419.419,0,0,0,.571-.38l-.951-5.231c0-.1,0-.285.1-.285l3.8-3.709c.285-.285.19-.571-.1-.666L11.6,5.134c-.1,0-.19-.1-.285-.19L8.938.189a.366.366,0,0,0-.666,0L5.894,4.944c-.1.1-.19.19-.285.19L.283,5.9a.371.371,0,0,0-.19.666L3.9,10.27a.349.349,0,0,1,.1.285l-.856,5.231a.372.372,0,0,0,.571.38" transform="translate(974.048 815.609)"/>
    <path id="Path_550" data-name="Path 550" class="cls-1" d="M8.842,13.694l4.66,2.473a.419.419,0,0,0,.571-.38l-.951-5.231c0-.1,0-.285.1-.285l3.8-3.709c.285-.285.19-.571-.1-.666L11.6,5.134c-.1,0-.19-.1-.285-.19L8.938.189a.366.366,0,0,0-.666,0L5.894,4.944c-.1.1-.19.19-.285.19L.283,5.9a.371.371,0,0,0-.19.666L3.9,10.27a.349.349,0,0,1,.1.285l-.856,5.231a.372.372,0,0,0,.571.38" transform="translate(994.048 815.609)"/>
    <path id="Path_551" data-name="Path 551" class="cls-1" d="M8.842,13.694l4.66,2.473a.419.419,0,0,0,.571-.38l-.951-5.231c0-.1,0-.285.1-.285l3.8-3.709c.285-.285.19-.571-.1-.666L11.6,5.134c-.1,0-.19-.1-.285-.19L8.938.189a.366.366,0,0,0-.666,0L5.894,4.944c-.1.1-.19.19-.285.19L.283,5.9a.371.371,0,0,0-.19.666L3.9,10.27a.349.349,0,0,1,.1.285l-.856,5.231a.372.372,0,0,0,.571.38" transform="translate(1014.048 815.609)"/>
    <path id="Path_552" data-name="Path 552" class="cls-2" d="M3.707,16.167a.372.372,0,0,1-.571-.38l.856-5.231a.349.349,0,0,0-.1-.285L.093,6.561A.371.371,0,0,1,.283,5.9l5.326-.761c.1,0,.19-.1.285-.19L8.272.189a.366.366,0,0,1,.666,0l2.378,4.755c.1.1.19.19.285.19l5.326.761c.285.1.38.38.1.666l-3.8,3.709c-.1,0-.1.19-.1.285l.951,5.231a.419.419,0,0,1-.571.38l-4.66-2.473Z" transform="translate(1034.048 815.609)"/>
    <path id="Path_553" data-name="Path 553" class="cls-2" d="M8.842,13.694l4.66,2.473a.419.419,0,0,0,.571-.38l-.951-5.231c0-.1,0-.285.1-.285l3.8-3.709c.285-.285.19-.571-.1-.666L11.6,5.134c-.1,0-.19-.1-.285-.19L8.938.189a.366.366,0,0,0-.666,0L5.894,4.944c-.1.1-.19.19-.285.19L.283,5.9a.371.371,0,0,0-.19.666L3.9,10.27a.349.349,0,0,1,.1.285l-.856,5.231a.372.372,0,0,0,.571.38C3.992,15.977,8.842,13.694,8.842,13.694Z" transform="translate(1054.048 815.609)"/>
  </g>
</svg>
