<?xml version="1.0" encoding="utf-8"?>
<!-- Generator: Adobe Illustrator 22.1.0, SVG Export Plug-In . SVG Version: 6.00 Build 0)  -->
<svg version="1.1" id="Layer_1" xmlns="http://www.w3.org/2000/svg" xmlns:xlink="http://www.w3.org/1999/xlink" x="0px" y="0px"
	 viewBox="0 0 73 73" style="enable-background:new 0 0 73 73;" xml:space="preserve">
<style type="text/css">
	.st0{fill:#BCBEC0;}
	.st1{fill:none;}
</style>
<path class="st0" d="M25.6,35.6c-2.5,0-4.6,2-4.6,4.6c0,2.5,2,4.6,4.6,4.6c2.5,0,4.6-2,4.6-4.6C30.1,37.6,28.1,35.6,25.6,35.6z
	 M47.5,35.6c-2.5,0-4.6,2-4.6,4.6c0,2.5,2,4.6,4.6,4.6c2.5,0,4.6-2,4.6-4.6C52,37.6,50,35.6,47.5,35.6z M36.5,0
	C16.3,0,0,16.4,0,36.5S16.4,73,36.5,73S73,56.6,73,36.5S56.7,0,36.5,0z M36.5,65.7c-16.1,0-29.2-13.1-29.2-29.2
	c0-1.1,0.1-2.1,0.2-3.1c8.6-3.8,15.4-10.9,19-19.6c6.6,9.3,17.5,15.4,29.8,15.4c2.8,0,5.6-0.3,8.2-0.9c0.8,2.6,1.2,5.4,1.2,8.3
	C65.7,52.6,52.6,65.7,36.5,65.7z"/>
<path class="st1" d="M-21.9-31.9H94.9V84.9H-21.9V-31.9z"/>
</svg>
