<svg xmlns="http://www.w3.org/2000/svg" viewBox="1327 650 150.403 142.68">
  <defs>
    <style>
      .cls-1 {
        fill: #fff;
      }
    </style>
  </defs>
  <g id="Group_189" data-name="Group 189" transform="translate(1327 650)">
    <path id="Path_609" data-name="Path 609" class="cls-1" d="M34.7,59.661H52.161V42.3H34.7Zm2.477-14.916H49.685V57.094H37.177Z" transform="translate(8.272 9.417)"/>
    <path id="Path_610" data-name="Path 610" class="cls-1" d="M13.4,59.661H30.861V42.3H13.4Zm2.477-14.916H28.385V57.094H15.877Z" transform="translate(3.195 9.417)"/>
    <path id="Path_611" data-name="Path 611" class="cls-1" d="M13.2,81.039H30.661V63.8H13.2Zm2.477-14.794H28.185V78.594H15.677Z" transform="translate(3.147 14.203)"/>
    <path id="Path_612" data-name="Path 612" class="cls-1" d="M13.2,102.539H30.661V85.3H13.2Zm2.477-14.794H28.185v12.349H15.677Z" transform="translate(3.147 18.99)"/>
    <path id="Path_613" data-name="Path 613" class="cls-1" d="M34.7,102.539H52.161V85.3H34.7Zm2.477-14.794H49.685v12.349H37.177Z" transform="translate(8.272 18.99)"/>
    <path id="Path_614" data-name="Path 614" class="cls-1" d="M95.361,42.3H77.9V59.539H95.361ZM92.885,57.216H80.377V44.745H92.885Z" transform="translate(18.571 9.417)"/>
    <path id="Path_615" data-name="Path 615" class="cls-1" d="M73.885,42.3H56.3V59.539H73.761V42.3ZM71.408,57.216H58.777V44.745H71.285V57.216Z" transform="translate(13.422 9.417)"/>
    <path id="Path_616" data-name="Path 616" class="cls-1" d="M34.7,81.039H52.161V63.8H34.7Zm2.477-14.794H49.685V78.594H37.177Z" transform="translate(8.272 14.203)"/>
    <path id="Path_617" data-name="Path 617" class="cls-1" d="M130.527,112.359a26.774,26.774,0,0,0-.248-26.409V11.615H110.217V0h-4.954V11.615H25.016V0H20.062V11.615H0V137.79H130.279v-4.524l7.43,7.336a6.942,6.942,0,0,0,9.907,0l.743-.734a6.874,6.874,0,0,0,0-9.781Zm14.365,23.963-.743.734a2.281,2.281,0,0,1-2.972,0l-17.214-16.994a24.714,24.714,0,0,0,1.981-1.712,13.141,13.141,0,0,0,1.734-1.956l17.214,16.994A2.209,2.209,0,0,1,144.893,136.322ZM84.83,83.016A26.591,26.591,0,0,0,80.124,92.8h-7.8V80.449H84.83Zm37.523,31.91a22.628,22.628,0,0,1-31.7,0,22.085,22.085,0,0,1,0-31.3,22.628,22.628,0,0,1,31.7,0A21.866,21.866,0,0,1,122.354,114.926Zm-37.523.611v3.546H72.2V106.735h8.05A28.56,28.56,0,0,0,84.83,115.538ZM4.954,16.505H20.062v6.847H17.585v4.89h9.907v-4.89H25.016V16.505h80.248v6.847h-2.477v4.89h9.907v-4.89h-2.477V16.505h15.108V35.823H4.954ZM125.326,132.777H4.954V40.713H125.326v39a27.478,27.478,0,0,0-38.019.611h0v-2.2H69.722V95.365h9.783a27,27,0,0,0,.124,8.925H69.6v17.239H87.059V118.35h0a27.251,27.251,0,0,0,19.319,7.947,27.745,27.745,0,0,0,13.251-3.423l5.573,5.5v4.4Z"/>
    <path id="Path_618" data-name="Path 618" class="cls-1" d="M86.1,69.4v2.445A12.079,12.079,0,0,1,98.236,83.827h2.477A14.628,14.628,0,0,0,86.1,69.4Z" transform="translate(20.526 15.45)"/>
  </g>
</svg>
