<svg xmlns="http://www.w3.org/2000/svg" viewBox="10335 -4308.059 22.34 24.059">
  <defs>
    <style>
      .cls-1 {
        fill: #fff;
      }
    </style>
  </defs>
  <g id="Group_244" data-name="Group 244" transform="translate(10335 -5260.458)">
    <path id="Path_619" data-name="Path 619" class="cls-1" d="M5.728,952.4a.575.575,0,0,0-.573.573v5.155a.573.573,0,1,0,1.146,0v-5.155A.575.575,0,0,0,5.728,952.4Zm10.884,0a.575.575,0,0,0-.573.573v5.155a.573.573,0,1,0,1.146,0v-5.155A.575.575,0,0,0,16.612,952.4ZM2.291,954.691A2.3,2.3,0,0,0,0,956.983v4.01H22.34v-4.01a2.3,2.3,0,0,0-2.291-2.291H17.758v2.148a1.75,1.75,0,0,1,.573,1.289,1.718,1.718,0,0,1-3.437,0,1.75,1.75,0,0,1,.573-1.289v-2.148H6.874v2.148a1.75,1.75,0,0,1,.573,1.289,1.718,1.718,0,0,1-3.437,0,1.75,1.75,0,0,1,.573-1.289v-2.148H2.291ZM0,962.138v12.029a2.3,2.3,0,0,0,2.291,2.291h17.9a2.248,2.248,0,0,0,2.148-2.177V962.138Z"/>
  </g>
</svg>
