<svg xmlns="http://www.w3.org/2000/svg" viewBox="12945.483 -5213.542 23.727 25">
  <defs>
    <style>
      .cls-1 {
        fill: #7ca4d9;
      }
    </style>
  </defs>
  <g id="Group_265" data-name="Group 265" transform="translate(12945.483 -5213.543)">
    <path id="Path_619" data-name="Path 619" class="cls-1" d="M6.084,952.4a.6.6,0,0,0-.608.6v5.357a.609.609,0,0,0,1.217,0V953A.6.6,0,0,0,6.084,952.4Zm11.559,0a.6.6,0,0,0-.608.6v5.357a.609.609,0,0,0,1.217,0V953A.6.6,0,0,0,17.643,952.4ZM2.434,954.781A2.415,2.415,0,0,0,0,957.162v4.167H23.727v-4.167a2.415,2.415,0,0,0-2.434-2.381H18.86v2.232a1.825,1.825,0,1,1-2.434,0v-2.232H7.3v2.232a1.825,1.825,0,1,1-2.434,0v-2.232H2.434ZM0,962.519v12.5A2.415,2.415,0,0,0,2.434,977.4H21.445a2.362,2.362,0,0,0,2.281-2.262V962.519Z" transform="translate(0 -952.4)"/>
  </g>
</svg>
