<svg xmlns="http://www.w3.org/2000/svg" viewBox="3192.317 718.335 19.514 19.073">
  <defs>
    <style>
      .cls-1 {
        fill: none;
        stroke: #939393;
        stroke-miterlimit: 10;
      }
    </style>
  </defs>
  <g id="Symbol_96_4" data-name="Symbol 96 – 4" transform="translate(3096.654 -839.138)">
    <path id="Path_694" data-name="Path 694" class="cls-1" d="M6.5,3.408a1.166,1.166,0,0,1-.073,1.618l-1.017.957a.462.462,0,0,0-.073.524l.073.137c.048.091.145.205.218.342A7.855,7.855,0,0,0,6.6,8.08a8.119,8.119,0,0,0,1.162.912,1.467,1.467,0,0,0,.363.205.537.537,0,0,1,.121.068.576.576,0,0,0,.581-.046l1.017-.957a1.356,1.356,0,0,1,1.719-.068L14.2,10.2a1.027,1.027,0,0,1,.1,1.6l-1.622,1.527c-1.453,1.368-6.1-.433-8.645-2.826s-4.456-6.769-3-8.137L2.65.832a1.182,1.182,0,0,1,1.7.091Z" transform="matrix(0.921, 0.391, -0.391, 0.921, 101.252, 1557.457)"/>
  </g>
</svg>
