<svg xmlns="http://www.w3.org/2000/svg" viewBox="3217 1319.508 33.371 33.371">
  <defs>
    <style>
      .cls-1 {
        fill: #7ac7cc;
      }

      .cls-2 {
        fill: #fff;
      }
    </style>
  </defs>
  <g id="Group_32" data-name="Group 32" transform="translate(3217 1319.508)">
    <path id="Path_250" data-name="Path 250" class="cls-1" d="M16.686.7A16.686,16.686,0,1,0,33.371,17.386,16.714,16.714,0,0,0,16.686.7ZM20.82,17.972" transform="translate(0 -0.7)"/>
    <g id="Group_31" data-name="Group 31" transform="translate(8.064 9.677)">
      <path id="Path_251" data-name="Path 251" class="cls-2" d="M44.713,35.371a6.918,6.918,0,0,1-2.023.557,3.574,3.574,0,0,0,1.554-1.965,6.552,6.552,0,0,1-2.258.85A3.562,3.562,0,0,0,39.406,33.7a3.51,3.51,0,0,0-3.519,3.519,3.448,3.448,0,0,0,.088.792A9.926,9.926,0,0,1,28.7,34.374a3.611,3.611,0,0,0-.469,1.789A3.45,3.45,0,0,0,29.817,39.1a3.78,3.78,0,0,1-1.613-.44v.059a3.551,3.551,0,0,0,2.844,3.46,3.3,3.3,0,0,1-.938.117,5.235,5.235,0,0,1-.674-.059A3.54,3.54,0,0,0,32.749,44.7a7.137,7.137,0,0,1-4.4,1.525,8.284,8.284,0,0,1-.85-.059,10.064,10.064,0,0,0,15.483-8.475v-.469a7.957,7.957,0,0,0,1.73-1.847Zm0,0" transform="translate(-27.5 -33.7)"/>
    </g>
  </g>
</svg>
