<svg id="Layer_1" data-name="Layer 1" xmlns="http://www.w3.org/2000/svg" viewBox="0 0 519.07 229.88"><<path d="M541,138.06l-2.46-2.46a359.07,359.07,0,0,0-508.16,0l-2.46,2.46a10.35,10.35,0,0,0,0,14.56l2.46,2.46A356.31,356.31,0,0,0,149.25,234a357.41,357.41,0,0,0,135.18,26.27A359.94,359.94,0,0,0,419.62,234a357.58,357.58,0,0,0,118.89-78.93l2.46-2.46A10.35,10.35,0,0,0,541,138.06ZM234.49,236.2A341.92,341.92,0,0,1,156.83,215,336,336,0,0,1,49.7,145.3,336.9,336.9,0,0,1,234.49,54.54a103.58,103.58,0,0,0,0,181.66Zm49.88-41.42a49.41,49.41,0,1,1,49.4-49.41A49.44,49.44,0,0,1,284.37,194.78ZM411.9,215a337.74,337.74,0,0,1-77.66,21.15,103.59,103.59,0,0,0,0-181.67A336.67,336.67,0,0,1,519,145.3,336.71,336.71,0,0,1,411.9,215Z" transform="translate(-24.9 -30.4)"/></svg>
